<svg xmlns="http://www.w3.org/2000/svg" xmlns:xlink="http://www.w3.org/1999/xlink" width="768.93" height="142.75" viewBox="0 0 768.93 142.75"><defs><clipPath id="a"><rect width="768.86" height="142.75" transform="translate(95.71 198.45)"/></clipPath><clipPath id="c"><rect width="768.92" height="142.75" transform="translate(95.64 198.45)"/></clipPath></defs><g transform="translate(-95.64 -198.45)"><g clip-path="url(#a)"><path d="M170.27,198.53c13.72-.61,29.95,2.12,32.97,11.18,4.95,14.83-20.16,36.46-42.06,47.08-5.36,2.6-8.62,3.32-9.97,3.14a1.44,1.44,0,0,1-1.07-2.21c.78-1.56,4.31-4.73,9.04-8.19,24.64-17.99,32.65-31.2,28-36.55-2.99-3.42-15.48-5.8-28.45-5.8-3.52,0-12.78.76-13.73-2.29-.77-2.5,11.65-5.76,25.27-6.36" fill="#ee3124" fill-rule="evenodd"/></g><g clip-path="url(#a)"><path d="M139.62,266.14c11.4-.6,25.25,1.19,33.03,6.52a11.866,11.866,0,0,1,5.01,13.12c-4.49,15.86-21.24,35.06-58.47,49.81-11.84,4.69-21.15,6.49-23.1,5.22-2.1-1.35,4.01-11.82,5.85-15.3,5.94-11.25,13.37-22.21,20.61-32.24,2.66-3.69,6.78-10.09,10.51-9.58,3.34.46-.57,7.27-3.14,11.59-4.32,7.26-16.21,27.43-12.29,28.64,8.68,2.67,49.38-25.09,43.38-40.55-2.78-7.17-20.46-7.86-31.59-7.86-5.06,0-16.12,1.07-16.73-2.4-.68-3.2,16.78-6.43,26.93-6.97" fill="#ee3124" fill-rule="evenodd"/></g><g clip-path="url(#c)"><path d="M228.49,247.4c6.9,1.13,12.52,2,13.81,4.63,1.45,2.98-6.06,3.17-9.85,3.24-18.15.32-29.09.64-29.64,6.21-.71,7.17,7.75,14.4,16.12,24.53,7.64,9.24,16.33,18.36,13.82,26.88-3.12,10.59-17.5,12.83-31.18,12.84a184,184,0,0,1-30.75-2.83c-6.5-1.16-5.53-4.06-3.8-5,1.93-1.04,12.98-1.07,20.66-1.48,6.32-.34,24.67-.33,27.54-4.58,3.51-5.2-5.08-14.1-12.97-23.43-9.84-11.63-20.65-23.65-14.93-32.42,7.4-11.35,29.06-10.57,41.17-8.59" fill="#ee3124" fill-rule="evenodd"/></g><g clip-path="url(#c)"><path d="M373.6,261.83c-22.87,0-35.14,15.21-38.14,33.35-2.95,18.16,4.32,33.34,27.19,33.34,22.84,0,35.13-15.18,38.13-33.34,2.97-18.14-4.32-33.35-27.18-33.35m13.04,33.35c-2.42,14.85-9.24,22.38-22.21,22.38s-17.28-7.53-14.83-22.38c2.42-14.84,9.22-22.38,22.21-22.38,12.96,0,17.26,7.54,14.83,22.38" fill="#ee3124"/></g><g clip-path="url(#c)"><path d="M282.82,275.78a15.306,15.306,0,0,0,6.48,15.19l20.46,14.27c2.17,1.48,3.21,2.49,2.95,4.22-.37,2.38-1.63,3.37-5.86,3.37H283.07c-2.53,0-3.92,1.21-4.39,4.1v8.86h27.86c12.21,0,18.24-7.19,19.45-14.84,1.15-7.19-1.26-12.34-5.91-15.63l-21.72-15.43c-1.75-1.26-2.18-1.91-2.05-2.84.2-1.58,1.61-2.22,4.08-2.22h24.82c3.05,0,4.77-3.09,5.24-6.17v-6.81H297.64c-7.29-.02-13.65,6.49-14.82,13.93" fill="#ee3124"/></g><g clip-path="url(#c)"><path d="M448.52,315.38H421.36l9.36-51.35a1.849,1.849,0,0,0-1.84-2.2H416.92l-11.67,63.96h45.01l1.16-6.42c.51-2.83-.44-3.99-2.9-3.99" fill="#ee3124"/></g><g clip-path="url(#c)"><path d="M813.61,262.22h-3.15l-32.89,28.15,4.35-24.86a2.609,2.609,0,0,0-.93-2.72,3.271,3.271,0,0,0-2.02-.69h-3.15l-11.89,63.94h7.02l5.22-28.29,26.05,28.32h3.12a3.039,3.039,0,0,0,1.74-.49,2.229,2.229,0,0,0,.83-1.76,4.332,4.332,0,0,0-.95-2.32L782.3,294.7l32.93-27.94a3.16,3.16,0,0,0,.92-2.32,2.224,2.224,0,0,0-.79-1.73,2.8,2.8,0,0,0-1.75-.49" fill="#ee3124"/></g><g clip-path="url(#a)"><path d="M732.52,262.1H716.07l-11.88,63.97h7.03l4.98-27.5,12.82.07,15.93,27.43h3.56a2.809,2.809,0,0,0,1.74-.49,2.15,2.15,0,0,0,.81-1.76,6.005,6.005,0,0,0-.9-2.32l-13.59-23.24c16.14-1.45,20.43-12.83,21.41-17.38.79-3.68.58-9.69-2.25-12.95-4.96-5.68-13.5-5.83-23.21-5.83m7.29,29.06c-3.91,1.05-9.4,1.24-15.09,1.24-2.02-.03-4.88-.05-7.39-.08l4.19-23.28c3.33-.01,14.21-.17,17.9.02a29.4,29.4,0,0,1,3.57.34c3.02.58,4.99,1.16,6.27,2.43,5.51,5.24.57,16.63-9.45,19.33" fill="#ee3124"/></g><g clip-path="url(#a)"><path d="M838.16,262.1c-12.34.04-13.63,10.15-13.69,14.93,0,5.03,3.65,9.04,5.46,10.63l17.97,17.61a9.707,9.707,0,0,1,3.19,6.85c0,3.9-2.98,7.09-7.79,7.07-.02.02-23.26.02-23.48.1a2.188,2.188,0,0,0-1.54,1.94h-.08l.08.04v4.8h26.11c12.32-.05,13.64-10.16,13.69-14.93v-.03c0-6.63-6.09-11.75-6.12-11.75l-17.04-16.77c-2.11-2.09-3.43-4.24-3.46-6.57.02-3.93,2.98-7.07,7.81-7.07.02,0,23.52-.03,23.72-.09l.05.17-.04-.17a2.188,2.188,0,0,0,1.56-1.92V262.1h-26.4Z" fill="#ee3124"/></g><g clip-path="url(#c)"><path d="M530.24,261.83H495.83l-.17,1.02c-.79,4.35-.44,9.36,6.44,9.36h25.48c10.09,0,13.96,7.31,11.47,21.02-2.29,12.54-9.08,22.15-19.35,22.15H505.87l6.59-35.97H500.69a2.829,2.829,0,0,0-2.85,2.18l-8.08,44.18h26.96c19.92,0,33.8-9.34,38.08-33.01,3.34-18.15-4.26-30.93-24.56-30.93" fill="#ee3124"/></g><g clip-path="url(#c)"><path d="M482.4,261.83H470.43l-11.69,63.94h14.21l11.29-61.76a1.85,1.85,0,0,0-1.84-2.18" fill="#ee3124"/></g><g clip-path="url(#c)"><path d="M677.84,261.98v-.03c-20.6-1.59-33.67,12.75-38.18,30.92-4.12,16.36,1.44,33.52,20.9,35.78,20.91,1.6,34.01-12.75,38.33-30.92,3.88-16.39-1.84-33.52-21.05-35.75m14.19,35.19c-4.43,18.64-17.07,25.57-28.94,24.93l-1.17-.06c-11.5-1.47-19.99-10.34-15.47-28.61,4.62-18.63,18.03-25.55,29.77-24.92,11.65,1.19,20.15,10.39,15.81,28.66" fill="#ee3124"/></g><g clip-path="url(#c)"><path d="M639.66,264.63a2.517,2.517,0,0,0-.86-1.95,2.805,2.805,0,0,0-1.84-.57h-3.23l-24.82,56.25-6.48-30.13a4.8,4.8,0,0,0-5.02-4.31h-4.17l-19.59,34.14.2-53.23a2.753,2.753,0,0,0-.9-2.1,2.927,2.927,0,0,0-1.95-.62h-4.18v63.94h5.44a6.733,6.733,0,0,0,4.14-1.2,11.179,11.179,0,0,0,2.75-3.08l17.17-30.6,7.12,34.88h4.62a7.123,7.123,0,0,0,6.62-4.57l24.66-55.49a3.064,3.064,0,0,0,.32-1.36" fill="#ee3124"/></g></g></svg>