<?xml version="1.0" encoding="utf-8"?>
<!-- Generator: Adobe Illustrator 23.0.3, SVG Export Plug-In . SVG Version: 6.00 Build 0)  -->
<svg version="1.1" id="Layer_1" xmlns="http://www.w3.org/2000/svg" xmlns:xlink="http://www.w3.org/1999/xlink" x="0px" y="0px"
	 viewBox="0 0 959.98 540" style="enable-background:new 0 0 959.98 540;" xml:space="preserve">
<style type="text/css">
	.st0{display:none;}
	.st1{display:inline;}
	.st2{clip-path:url(#SVGID_2_);fill-rule:evenodd;clip-rule:evenodd;fill:#EE3124;}
	.st3{clip-path:url(#SVGID_4_);fill-rule:evenodd;clip-rule:evenodd;fill:#EE3124;}
	.st4{clip-path:url(#SVGID_4_);fill:#EE3124;}
	.st5{clip-path:url(#SVGID_6_);fill:#EE3124;}
	.st6{clip-path:url(#SVGID_8_);fill:#EE3124;}
	.st7{clip-path:url(#SVGID_10_);fill-rule:evenodd;clip-rule:evenodd;fill:#FFFFFF;}
	.st8{clip-path:url(#SVGID_12_);fill-rule:evenodd;clip-rule:evenodd;fill:#FFFFFF;}
	.st9{clip-path:url(#SVGID_12_);fill:#FFFFFF;}
	.st10{clip-path:url(#SVGID_14_);fill:#FFFFFF;}
	.st11{clip-path:url(#SVGID_16_);fill:#FFFFFF;}
</style>
<g class="st0">
	<g class="st1">
		<defs>
			<rect id="SVGID_1_" x="95.71" y="198.45" width="768.86" height="142.75"/>
		</defs>
		<clipPath id="SVGID_2_">
			<use xlink:href="#SVGID_1_"  style="overflow:visible;"/>
		</clipPath>
		<path class="st2" d="M170.27,198.53c13.72-0.61,29.95,2.12,32.97,11.18c4.95,14.83-20.16,36.46-42.06,47.08
			c-5.36,2.6-8.62,3.32-9.97,3.14c-1.29-0.17-1.49-1.37-1.07-2.21c0.78-1.56,4.31-4.73,9.04-8.19c24.64-17.99,32.65-31.2,28-36.55
			c-2.99-3.42-15.48-5.8-28.45-5.8c-3.52,0-12.78,0.76-13.73-2.29C144.23,202.39,156.65,199.13,170.27,198.53"/>
		<path class="st2" d="M139.62,266.14c11.4-0.6,25.25,1.19,33.03,6.52c3.86,2.65,6.58,7.52,5.01,13.12
			c-4.49,15.86-21.24,35.06-58.47,49.81c-11.84,4.69-21.15,6.49-23.1,5.22c-2.1-1.35,4.01-11.82,5.85-15.3
			c5.94-11.25,13.37-22.21,20.61-32.24c2.66-3.69,6.78-10.09,10.51-9.58c3.34,0.46-0.57,7.27-3.14,11.59
			c-4.32,7.26-16.21,27.43-12.29,28.64c8.68,2.67,49.38-25.09,43.38-40.55c-2.78-7.17-20.46-7.86-31.59-7.86
			c-5.06,0-16.12,1.07-16.73-2.4C112.01,269.91,129.47,266.68,139.62,266.14"/>
	</g>
	<g class="st1">
		<defs>
			<rect id="SVGID_3_" x="95.64" y="198.45" width="768.92" height="142.75"/>
		</defs>
		<clipPath id="SVGID_4_">
			<use xlink:href="#SVGID_3_"  style="overflow:visible;"/>
		</clipPath>
		<path class="st3" d="M228.49,247.4c6.9,1.13,12.52,2,13.81,4.63c1.45,2.98-6.06,3.17-9.85,3.24c-18.15,0.32-29.09,0.64-29.64,6.21
			c-0.71,7.17,7.75,14.4,16.12,24.53c7.64,9.24,16.33,18.36,13.82,26.88c-3.12,10.59-17.5,12.83-31.18,12.84
			c-13.11,0.01-25.53-1.89-30.75-2.83c-6.5-1.16-5.53-4.06-3.8-5c1.93-1.04,12.98-1.07,20.66-1.48c6.32-0.34,24.67-0.33,27.54-4.58
			c3.51-5.2-5.08-14.1-12.97-23.43c-9.84-11.63-20.65-23.65-14.93-32.42C194.72,244.64,216.38,245.42,228.49,247.4"/>
		<path class="st4" d="M373.6,261.83c-22.87,0-35.14,15.21-38.14,33.35c-2.95,18.16,4.32,33.34,27.19,33.34
			c22.84,0,35.13-15.18,38.13-33.34C403.75,277.04,396.46,261.83,373.6,261.83 M386.64,295.18c-2.42,14.85-9.24,22.38-22.21,22.38
			c-12.96,0-17.28-7.53-14.83-22.38c2.42-14.84,9.22-22.38,22.21-22.38C384.77,272.8,389.07,280.34,386.64,295.18"/>
		<path class="st4" d="M282.82,275.78c-0.8,5.1,0.77,11.19,6.48,15.19l20.46,14.27c2.17,1.48,3.21,2.49,2.95,4.22
			c-0.37,2.38-1.63,3.37-5.86,3.37h-23.78c-2.53,0-3.92,1.21-4.39,4.1v8.86h27.86c12.21,0,18.24-7.19,19.45-14.84
			c1.15-7.19-1.26-12.34-5.91-15.63l-21.72-15.43c-1.75-1.26-2.18-1.91-2.05-2.84c0.2-1.58,1.61-2.22,4.08-2.22h24.82
			c3.05,0,4.77-3.09,5.24-6.17v-6.81h-32.81C290.35,261.83,283.99,268.34,282.82,275.78"/>
		<path class="st4" d="M448.52,315.38h-27.16l9.36-51.35c0.21-1.05-0.56-2.2-1.84-2.2h-11.96l-11.67,63.96h45.01l1.16-6.42
			C451.93,316.54,450.98,315.38,448.52,315.38"/>
		<path class="st4" d="M813.61,262.22h-3.15l-32.89,28.15l4.35-24.86c0.28-1.38-0.37-2.34-0.93-2.72c-0.58-0.46-1.31-0.69-2.02-0.69
			h-3.15l-11.89,63.94h7.02l5.22-28.29l26.05,28.32h3.12c0.63-0.03,1.22-0.11,1.74-0.49c0.56-0.41,0.83-1.14,0.83-1.76
			c0-1.17-0.95-2.32-0.95-2.32l-24.66-26.8l32.93-27.94c0,0,0.92-0.79,0.92-2.32c0.01-0.6-0.27-1.34-0.79-1.73
			C814.81,262.3,814.19,262.22,813.61,262.22"/>
	</g>
	<g class="st1">
		<defs>
			<rect id="SVGID_5_" x="95.71" y="198.45" width="768.86" height="142.75"/>
		</defs>
		<clipPath id="SVGID_6_">
			<use xlink:href="#SVGID_5_"  style="overflow:visible;"/>
		</clipPath>
		<path class="st5" d="M732.52,262.1h-16.45l-11.88,63.97h7.03l4.98-27.5l12.82,0.07l15.93,27.43h3.56c0.64,0,1.22-0.11,1.74-0.49
			c0.56-0.41,0.83-1.14,0.81-1.76c0-0.9-0.9-2.32-0.9-2.32l-13.59-23.24c16.14-1.45,20.43-12.83,21.41-17.38
			c0.79-3.68,0.58-9.69-2.25-12.95C750.77,262.25,742.23,262.1,732.52,262.1 M739.81,291.16c-3.91,1.05-9.4,1.24-15.09,1.24
			c-2.02-0.03-4.88-0.05-7.39-0.08l4.19-23.28c3.33-0.01,14.21-0.17,17.9,0.02c1.46,0.08,2.78,0.18,3.57,0.34
			c3.02,0.58,4.99,1.16,6.27,2.43C754.77,277.07,749.83,288.46,739.81,291.16"/>
		<path class="st5" d="M838.16,262.1c-12.34,0.04-13.63,10.15-13.69,14.93c0,5.03,3.65,9.04,5.46,10.63l17.97,17.61
			c2.13,2.08,3.19,4.53,3.19,6.85c0,3.9-2.98,7.09-7.79,7.07c-0.02,0.02-23.26,0.02-23.48,0.1c-0.78,0.15-1.56,1.15-1.54,1.94h-0.08
			l0.08,0.04v4.8h26.11c12.32-0.05,13.64-10.16,13.69-14.93v-0.03c0-6.63-6.09-11.75-6.12-11.75l-17.04-16.77
			c-2.11-2.09-3.43-4.24-3.46-6.57c0.02-3.93,2.98-7.07,7.81-7.07c0.02,0,23.52-0.03,23.72-0.09l0.05,0.17l-0.04-0.17
			c0.76-0.13,1.58-1.13,1.56-1.92v-0.04v-4.8H838.16z"/>
	</g>
	<g class="st1">
		<defs>
			<rect id="SVGID_7_" x="95.64" y="198.45" width="768.92" height="142.75"/>
		</defs>
		<clipPath id="SVGID_8_">
			<use xlink:href="#SVGID_7_"  style="overflow:visible;"/>
		</clipPath>
		<path class="st6" d="M530.24,261.83h-34.41l-0.17,1.02c-0.79,4.35-0.44,9.36,6.44,9.36h25.48c10.09,0,13.96,7.31,11.47,21.02
			c-2.29,12.54-9.08,22.15-19.35,22.15h-13.83l6.59-35.97h-11.77c-1.58,0-2.71,1.15-2.85,2.18l-8.08,44.18h26.96
			c19.92,0,33.8-9.34,38.08-33.01C558.14,274.61,550.54,261.83,530.24,261.83"/>
		<path class="st6" d="M482.4,261.83h-11.97l-11.69,63.94h14.21l11.29-61.76C484.44,262.99,483.68,261.83,482.4,261.83"/>
		<path class="st6" d="M677.84,261.98v-0.03c-20.6-1.59-33.67,12.75-38.18,30.92c-4.12,16.36,1.44,33.52,20.9,35.78
			c20.91,1.6,34.01-12.75,38.33-30.92C702.77,281.34,697.05,264.21,677.84,261.98 M692.03,297.17
			c-4.43,18.64-17.07,25.57-28.94,24.93l-1.17-0.06c-11.5-1.47-19.99-10.34-15.47-28.61c4.62-18.63,18.03-25.55,29.77-24.92
			C687.87,269.7,696.37,278.9,692.03,297.17"/>
		<path class="st6" d="M639.66,264.63c0.02-0.63-0.27-1.5-0.86-1.95c-0.58-0.46-1.21-0.57-1.84-0.57h-3.23l-24.82,56.25l-6.48-30.13
			c-0.37-2.64-2.48-4.45-5.02-4.31h-4.17l-19.59,34.14l0.2-53.23c0-0.71-0.27-1.6-0.9-2.1c-0.61-0.5-1.29-0.62-1.95-0.62h-4.18
			v63.94h5.31h0.13c1.56,0.03,2.97-0.36,4.14-1.2c1.05-0.77,1.94-1.81,2.75-3.08l17.17-30.6l7.12,34.88h4.5h0.12
			c2.92,0,5.35-1.68,6.62-4.57l24.66-55.49C639.52,265.54,639.66,265.25,639.66,264.63"/>
	</g>
</g>
<g>
	<g>
		<defs>
			<rect id="SVGID_9_" x="114.81" y="219.74" width="733.73" height="136.23"/>
		</defs>
		<clipPath id="SVGID_10_">
			<use xlink:href="#SVGID_9_"  style="overflow:visible;"/>
		</clipPath>
		<path class="st7" d="M185.96,219.81c13.09-0.58,28.58,2.03,31.47,10.67c4.73,14.16-19.24,34.79-40.13,44.93
			c-5.12,2.48-8.22,3.16-9.52,2.99c-1.23-0.16-1.43-1.31-1.02-2.11c0.75-1.48,4.11-4.51,8.62-7.81
			c23.52-17.17,31.17-29.78,26.72-34.88c-2.85-3.27-14.76-5.54-27.14-5.54c-3.36,0-12.19,0.74-13.09-2.19
			C161.11,223.49,172.97,220.38,185.96,219.81"/>
		<path class="st7" d="M156.71,284.33c10.88-0.57,24.09,1.13,31.52,6.22c3.68,2.54,6.28,7.18,4.78,12.52
			c-4.28,15.13-20.27,33.45-55.8,47.53c-11.3,4.48-20.19,6.19-22.05,4.99c-2-1.29,3.83-11.28,5.58-14.61
			c5.68-10.73,12.76-21.19,19.67-30.77c2.54-3.52,6.47-9.63,10.03-9.14c3.18,0.44-0.55,6.93-3,11.06
			c-4.13,6.93-15.48,26.18-11.73,27.33c8.29,2.55,47.13-23.94,41.4-38.69c-2.65-6.85-19.52-7.5-30.14-7.5
			c-4.83,0-15.39,1.03-15.97-2.29C130.36,287.93,147.02,284.85,156.71,284.33"/>
	</g>
	<g>
		<defs>
			<rect id="SVGID_11_" x="114.75" y="219.74" width="733.78" height="136.23"/>
		</defs>
		<clipPath id="SVGID_12_">
			<use xlink:href="#SVGID_11_"  style="overflow:visible;"/>
		</clipPath>
		<path class="st8" d="M241.52,266.45c6.59,1.07,11.95,1.91,13.18,4.42c1.38,2.85-5.79,3.02-9.4,3.09
			c-17.32,0.3-27.76,0.6-28.29,5.92c-0.68,6.85,7.4,13.75,15.38,23.41c7.29,8.82,15.58,17.53,13.19,25.65
			c-2.98,10.11-16.7,12.25-29.76,12.26c-12.51,0.01-24.36-1.81-29.34-2.69c-6.2-1.11-5.28-3.88-3.62-4.77
			c1.84-0.99,12.39-1.03,19.72-1.41c6.03-0.32,23.54-0.31,26.28-4.36c3.35-4.97-4.85-13.47-12.39-22.36
			c-9.39-11.1-19.71-22.57-14.25-30.94C209.29,263.82,229.96,264.56,241.52,266.45"/>
		<path class="st9" d="M380,280.21c-21.82,0-33.53,14.52-36.4,31.82c-2.81,17.33,4.12,31.82,25.94,31.82
			c21.8,0,33.53-14.48,36.39-31.82C408.77,294.73,401.81,280.21,380,280.21 M392.44,312.04c-2.31,14.17-8.81,21.36-21.19,21.36
			c-12.36,0-16.49-7.19-14.15-21.36c2.31-14.16,8.79-21.35,21.19-21.35C390.66,290.68,394.76,297.88,392.44,312.04"/>
		<path class="st9" d="M293.37,293.53c-0.77,4.87,0.73,10.68,6.19,14.5l19.52,13.62c2.07,1.41,3.06,2.37,2.81,4.02
			c-0.35,2.28-1.55,3.22-5.58,3.22h-22.69c-2.42,0-3.74,1.15-4.19,3.91v8.46H316c11.65,0,17.4-6.86,18.56-14.16
			c1.09-6.86-1.2-11.77-5.64-14.91l-20.73-14.74c-1.67-1.2-2.08-1.82-1.96-2.71c0.19-1.5,1.54-2.12,3.89-2.12h23.7
			c2.91,0,4.55-2.95,4.99-5.88v-6.51h-31.3C300.56,280.21,294.48,286.43,293.37,293.53"/>
		<path class="st9" d="M451.49,331.32h-25.92l8.93-49c0.2-1-0.53-2.11-1.75-2.11h-11.41l-11.14,61.04h42.95l1.11-6.13
			C454.75,332.42,453.85,331.32,451.49,331.32"/>
		<path class="st9" d="M799.9,280.59h-3l-31.39,26.87l4.15-23.72c0.27-1.33-0.35-2.23-0.88-2.6c-0.56-0.44-1.25-0.66-1.93-0.66
			h-3.01l-11.34,61.02h6.69l4.98-26.99l24.86,27.02H792c0.61-0.02,1.17-0.1,1.65-0.46c0.53-0.4,0.8-1.09,0.8-1.69
			c0-1.11-0.91-2.21-0.91-2.21l-23.53-25.58l31.43-26.65c0,0,0.88-0.75,0.88-2.21c0.01-0.58-0.25-1.28-0.75-1.65
			C801.05,280.67,800.45,280.59,799.9,280.59"/>
	</g>
	<g>
		<defs>
			<rect id="SVGID_13_" x="114.81" y="219.74" width="733.73" height="136.23"/>
		</defs>
		<clipPath id="SVGID_14_">
			<use xlink:href="#SVGID_13_"  style="overflow:visible;"/>
		</clipPath>
		<path class="st10" d="M722.52,280.48h-15.7l-11.34,61.05h6.71l4.76-26.25l12.23,0.07l15.2,26.18h3.4c0.61,0,1.16-0.11,1.66-0.46
			c0.53-0.4,0.8-1.09,0.77-1.69c0-0.86-0.86-2.21-0.86-2.21l-12.97-22.18c15.4-1.38,19.49-12.25,20.43-16.59
			c0.75-3.51,0.55-9.24-2.15-12.35C739.94,280.61,731.78,280.48,722.52,280.48 M729.47,308.21c-3.72,0.99-8.96,1.18-14.39,1.18
			c-1.94-0.03-4.66-0.05-7.06-0.08l4.01-22.22c3.18-0.01,13.56-0.16,17.08,0.02c1.4,0.07,2.65,0.17,3.41,0.32
			c2.88,0.55,4.77,1.11,5.98,2.32C743.75,294.76,739.03,305.63,729.47,308.21"/>
		<path class="st10" d="M823.33,280.48c-11.77,0.05-13,9.69-13.06,14.25c0,4.8,3.48,8.63,5.22,10.14l17.15,16.81
			c2.03,1.98,3.04,4.33,3.04,6.54c0,3.73-2.84,6.76-7.44,6.75c-0.02,0.01-22.2,0.01-22.41,0.09c-0.74,0.14-1.48,1.09-1.47,1.85
			h-0.08l0.08,0.04v4.58h24.92c11.77-0.04,13.02-9.7,13.07-14.25v-0.03c0-6.32-5.81-11.2-5.84-11.2l-16.27-16
			c-2.01-2-3.28-4.06-3.29-6.27c0.02-3.75,2.84-6.74,7.45-6.74c0.03,0,22.45-0.04,22.63-0.09l0.04,0.16l-0.03-0.16
			c0.72-0.13,1.5-1.08,1.48-1.83v-0.04v-4.59H823.33z"/>
	</g>
	<g>
		<defs>
			<rect id="SVGID_15_" x="114.75" y="219.74" width="733.78" height="136.23"/>
		</defs>
		<clipPath id="SVGID_16_">
			<use xlink:href="#SVGID_15_"  style="overflow:visible;"/>
		</clipPath>
		<path class="st11" d="M529.49,280.21h-32.85l-0.17,0.98c-0.75,4.16-0.42,8.93,6.14,8.93h24.31c9.63,0,13.32,6.98,10.95,20.07
			c-2.18,11.97-8.66,21.13-18.47,21.13h-13.2L512.5,297h-11.23c-1.51,0-2.58,1.09-2.73,2.08l-7.71,42.16h25.73
			c19,0,32.26-8.92,36.33-31.5C556.11,292.41,548.85,280.21,529.49,280.21"/>
		<path class="st11" d="M483.83,280.21h-11.42l-11.15,61.02h13.56l10.78-58.94C485.77,281.32,485.05,280.21,483.83,280.21"/>
		<path class="st11" d="M670.33,280.36v-0.03c-19.66-1.53-32.13,12.16-36.43,29.5c-3.93,15.61,1.37,31.99,19.94,34.14
			c19.95,1.53,32.46-12.16,36.58-29.5C694.12,298.84,688.67,282.49,670.33,280.36 M683.88,313.94
			c-4.22,17.79-16.28,24.4-27.61,23.79l-1.12-0.06c-10.98-1.41-19.08-9.87-14.77-27.3c4.41-17.78,17.21-24.39,28.41-23.78
			C679.91,287.73,688.02,296.51,683.88,313.94"/>
		<path class="st11" d="M633.91,282.89c0.02-0.6-0.25-1.43-0.82-1.86c-0.55-0.44-1.15-0.55-1.75-0.55h-3.09l-23.68,53.69
			l-6.18-28.76c-0.35-2.52-2.37-4.25-4.78-4.11h-3.98l-18.69,32.58l0.19-50.8c0-0.68-0.25-1.53-0.87-2
			c-0.57-0.47-1.23-0.59-1.86-0.59h-3.99v61.02h5.06h0.12c1.49,0.03,2.84-0.34,3.95-1.15c1.01-0.73,1.85-1.73,2.63-2.94l16.39-29.19
			l6.79,33.28h4.29h0.12c2.78,0,5.11-1.6,6.31-4.36l23.53-52.95C633.77,283.75,633.91,283.48,633.91,282.89"/>
	</g>
</g>
</svg>
